<svg version="1.2" xmlns="http://www.w3.org/2000/svg" viewBox="268 413 544.23 255.43">
	<title>Logo</title>
	<style>
		.s0 { fill: #000000 } 
	</style>
	<path id="Path 0" fill-rule="evenodd" class="s0" d="m636.6 413h28l0.4 0.3c0.2 0.1 2.5 2.1 5.2 4.4 2.7 2.3 5.2 4.4 5.5 4.7 0.5 0.4 0.5 0.5 0.5 0.7 0 0.2-2.3 2.6-12.6 12.6-9.3 9.1-12.6 12.2-12.8 12.3-0.1 0-0.3 0-0.5 0-0.1 0-5.8-5.6-12.7-12.3-10.2-10-12.6-12.4-12.6-12.6 0-0.2 0.1-0.3 0.5-0.7 0.4-0.3 2.8-2.4 5.5-4.7 2.7-2.3 5.1-4.3 5.3-4.4zm4 3c0.8 0.8 1.5 1.4 1.6 1.4 0 0 1.2-0.6 2.6-1.4 1.4-0.7 2.6-1.4 2.8-1.5 0.2-0.2 0.1-0.2-4.3-0.2-4.3 0-4.5 0-4.4 0.2 0.1 0 0.9 0.7 1.7 1.5zm15.7 0c1.3 0.7 2.5 1.3 2.6 1.4 0 0 0.6-0.5 1.6-1.4 0.9-0.8 1.6-1.5 1.7-1.5 0.1-0.2 0-0.2-4.4-0.2-4.4 0-4.5 0-4.3 0.2 0.2 0.1 1.4 0.7 2.8 1.5zm-12.7 2.3c0 0.1 1.6 1 3.5 2l3.5 2c0.4-0.3 2-1.2 3.7-2.1 1.8-1 3.2-1.8 3.2-1.8 0-0.1-1.5-1-3.4-2-1.9-1-3.4-1.9-3.5-1.9-0.1 0-1.6 0.8-3.5 1.9-1.9 1-3.5 1.9-3.5 1.9zm-10.1-0.7c0 3.8 0 4.2 0.1 4.2 0.1-0.1 1.7-0.9 3.6-1.8 1.9-1 3.4-1.8 3.4-1.8 0-0.1-0.8-0.8-1.7-1.7-0.9-0.8-1.8-1.6-1.9-1.7-0.2-0.1-0.3 0-1.9 1.3zm27.1 0.6c0 0.1 1.2 0.7 3.4 1.8 1.9 1 3.5 1.8 3.6 1.8 0.1 0.1 0.1-0.4 0.1-2.1l0.1-2.1c-2.7-2.2-3.4-2.9-3.4-2.9 0 0-0.9 0.8-1.9 1.7-1 0.9-1.9 1.7-1.9 1.8zm-32.7 4.2c2.9 0 3.8 0 3.9 0 0 0 0-0.7 0-1.7v-1.6zm41.5 0h4.1c-0.5-0.3-1.2-1-2-1.7-0.8-0.6-1.6-1.3-1.7-1.4l-0.4-0.3zm-33.5-0.1c-0.1 0.1 0.9 0.1 2.6 0.1h2.7c0-2.1 0-2.8 0-2.8 0 0-1.2 0.6-2.6 1.3-1.5 0.8-2.7 1.4-2.7 1.4zm24.1 0.1c5.1 0 5.5 0 5.4-0.1-0.1-0.1-1.3-0.7-2.6-1.3-1.4-0.7-2.5-1.3-2.6-1.3-0.1-0.1-0.1 0.3-0.1 1.3zm-17.1 0c4.9 0 4.9 0 4.7-0.1-0.2-0.1-1.3-0.7-2.5-1.4-1.2-0.6-2.2-1.2-2.2-1.2 0 0 0 0.6 0 1.4zm10.8-0.2l-0.4 0.2h4.9c0-2.1 0-2.7 0-2.7-0.1 0-1 0.5-2.1 1.1-1.2 0.6-2.2 1.3-2.4 1.4zm-23 4.6c1.6 1.6 2.9 2.8 2.9 2.8 0.1 0-0.3-1.3-0.8-3l-0.9-2.9c-4.3 0-4.4 0-4.2 0.2 0.1 0 1.5 1.4 3 2.9zm4.1-2.8c0.2 0.1 2.3 2 4.6 4.1 2.4 2.1 4.5 3.9 4.6 4 0.1 0.2 0.3 0.2 0.3 0.2 0 0-0.6-1.9-1.4-4.2-0.8-2.2-1.5-4.2-1.5-4.2 0-0.2-0.3-0.2-3.5-0.2h-3.4zm9.9 4.2c0.8 2.4 1.5 4.3 1.6 4.3 0 0 0.7-1.9 1.5-4.3 0.9-2.4 1.6-4.4 1.6-4.4 0 0-1.4-0.1-3.1-0.1-1.8 0-3.1 0.1-3.1 0.1 0 0 0.6 2 1.5 4.4zm8.5 0c0.9 2.4 1.6 4.3 1.6 4.3 0 0 0.7-1.9 1.6-4.3 0.8-2.4 1.5-4.4 1.5-4.4 0 0-1.4-0.1-3.1-0.1-1.7 0-3.1 0.1-3.1 0.1 0 0 0.7 2 1.5 4.4zm6.4-4c-0.1 0.2-0.8 2.2-1.5 4.3-0.8 2.1-1.4 3.8-1.3 3.8 0 0.1 0.1 0 0.3-0.1 0.1-0.2 2.2-2 4.5-4.1 2.4-2.1 4.5-3.9 4.7-4.1l0.3-0.3h-6.9zm8.7 2.5c-0.4 1.6-0.8 3-0.8 3 0 0 1.4-1.3 2.9-2.8 1.6-1.5 2.9-2.9 3-3 0.2-0.1 0.1-0.1-2-0.1h-2.2zm-33 2.4l0.9 3.1c9.4 9.2 12.2 11.9 12.2 11.9q0.1 0 0.1-0.1c0-0.1-0.7-1.9-1.5-4.1-0.7-2.2-1.4-4.1-1.5-4.2 0-0.1-2.5-2.4-5.6-5.1-3-2.7-5.5-4.9-5.5-4.9q-0.1 0-0.1 0.1c0 0 0.4 1.5 1 3.3zm20.3 6.6c-0.1 0.1-0.8 2-1.5 4.2-0.8 2.2-1.4 4-1.5 4.1q0 0.1 0.1 0.1c0 0 2.8-2.7 6.1-5.9l6.1-6c1.5-4.9 1.9-6.4 1.9-6.4 0-0.1-2.5 2.1-5.6 4.8-3 2.7-5.6 5-5.6 5.1zm-8.4-0.5c2.6 7.3 3.3 9.5 3.4 9.5 0 0 0.8-2.2 1.7-4.8l1.6-4.7c-2.5-7.3-3.3-9.4-3.3-9.4-0.1 0-0.9 2.1-1.8 4.7z"/>
	<g id="Layer 2">
	</g>
	<path id="CLAIR" class="s0" aria-label="CLAIR" d="m336.4 606.2q-28.1 0-48.3-19.1-20.1-19.3-20.1-47.4 0-28.2 17.6-47.3 17.7-19.3 45.2-19.3 21.6 0 43.7 7.2l-2.3 7.2q-21.6-6.4-41.4-6.4-23.6 0-38.5 16.9-15 16.9-15 41.4 0 24.5 17.3 41.7 17.5 17.1 41.8 17.1 21.2 0 36.7-6.4l2.7 6.1q-6.8 3.9-18 6.1-11 2.2-21.4 2.2zm148.3-2.2h-67.9v-128.7h8.7v120.8h59.2zm99.4-44.7h-57.6l-18.6 44.7h-9.2l54.2-129.6h5.1l54.3 129.6h-9.7zm-29.2-70.6q-0.1 0.2-0.7 2.2-2.5 7.7-4.8 13.1l-19.8 47.9h51.4l-19.8-47.7q-6.3-13.7-6.3-15.5zm99.9 115.2h-8.6v-128.7h8.6zm63.4 0h-8.6v-128.1q17.1-1.3 28.6-1.3 18.3 0 30.2 9.5 11.9 9.4 11.9 26.7 0 11.7-6.8 21.8-6.9 10-15.3 16 6.6 9.2 16.3 21.9 9.9 12.6 12.8 15.9 11 11.7 24.9 13.3l-0.2 5.8q-11-0.2-17.8-3.3-6.9-3.2-13.2-9.7-6.1-6.5-30.8-40.3-17.6 0-32-1.1zm26.8-59q7.9 0 16.9-10.5 9-10.4 9-24.1 0-13.9-9.3-20.9-9.2-7.2-24.5-7.2-8.1 0-18.9 0.7v61.1q14.4 0.9 26.8 0.9z"/>
	<path id="LONDON" class="s0" aria-label="LONDON" d="m455.2 668h-12.1v-22.9h1.6v21.5h10.5zm14.9-3q-3.1-3.5-3.1-8.5 0-5 3.1-8.3 3.2-3.5 8.1-3.5 4.9 0 8.1 3.5 3.2 3.3 3.2 8.3 0 5-3.2 8.5-3.2 3.4-8.1 3.4-4.9 0-8.1-3.4zm1.2-15.9q-2.7 3-2.7 7.4 0 4.5 2.7 7.5 2.7 3 6.9 3 4.3 0 6.9-3 2.7-3 2.7-7.5 0-4.4-2.7-7.4-2.6-3-6.9-3-4.2 0-6.9 3zm36.3-1v0.7l0.1 2.7v16.5h-1.5v-23.1h0.7l15.1 17.4q1.5 1.8 2.3 2.9-0.1-1.5-0.1-3.5v-16.6h1.5v23.1h-0.7l-15.3-17.7q-1.6-1.8-2.1-2.4zm43.5 18.8q4.5 0 7.2-2.5 2.8-2.4 2.8-7.4 0-4.9-3.1-7.8-3.1-2.9-7.6-2.9-2.9 0-5.1 0.2v20.1q2.1 0.3 5.8 0.3zm-0.7-22q5.2 0 8.8 3.3 3.6 3.2 3.6 8.9 0 2.8-1 5-0.9 2.2-2.5 3.5-3.3 2.7-8.2 2.7-3.2 0-7.3-0.4v-22.8q3.2-0.2 6.6-0.2zm30.9 20.1q-3.2-3.5-3.2-8.5 0-5 3.2-8.3 3.2-3.5 8-3.5 4.9 0 8.1 3.5 3.2 3.3 3.2 8.3 0 5-3.2 8.5-3.2 3.4-8.1 3.4-4.8 0-8-3.4zm1.1-15.9q-2.6 3-2.6 7.4 0 4.5 2.6 7.5 2.7 3 6.9 3 4.3 0 7-3 2.6-3 2.6-7.5 0-4.4-2.6-7.4-2.7-3-7-3-4.2 0-6.9 3zm36.4-1v0.7 2.7 16.5h-1.5v-23.1h0.7l15.1 17.4q1.5 1.8 2.4 2.9-0.2-1.5-0.2-3.5v-16.6h1.6v23.1h-0.7l-15.4-17.7q-1.6-1.8-2-2.4z"/>
</svg>